<?xml version="1.0" encoding="UTF-8"?>
<svg fill="#d4a843" id="Ebene_1" xmlns="http://www.w3.org/2000/svg" version="1.1" viewBox="185 235 495 80">
  <!-- Generator: Adobe Illustrator 30.2.1, SVG Export Plug-In . SVG Version: 2.1.1 Build 1)  -->
  <path d="M401.59,299.57c-.16-9.19-.18-15.93-.97-24.44l-8.91,19.79-14.21.09-9.53-21.01-.58,25.76-14.58-.34-.28-45h18.27l13.73,26.25,14.02-26.25h17.82l.04,45.17h-14.81v-.02Z"/>
  <path d="M476.04,274.28c1.18-3.11,2.88-8.91,2.13-12.43-.62-2.9-4.63-7.21-8.58-7.25l-40.69-.38-.06,45.44,40.81-.1c7.24-.02,11.66-5.02,12.11-12.42h.01c.32-5.36-2.71-9.39-5.73-12.86ZM445.37,265.12l14.09-.27h0c.39,0,.9.2,1.44.49.05.03.1.05.16.08.03.02.06.04.09.06.95.58,1.9,1.42,2.17,1.96.56,1.1-1.89,4.33-3.29,4.31h0l-14.73-.18c-.05,0-.1-.03-.15-.04-1.52-.39-1.33-6.38.23-6.41ZM462.29,289.18h0l-16.94-.44c-.9-.02-1.33-1.76-1.32-3.5,0-1.74.46-3.47,1.34-3.48l16.96-.24c1.56-.03,4.2,2.29,4.22,3.73.02,1.44-2.69,3.97-4.26,3.93Z"/>
  <path d="M324.56,291.53l-23.6-.12c-1.43,1.79-3.32,5-4.8,7.62-4.68.64-10.64.63-16.53.27l22.41-44.84,20.58-.04,22.5,45.11-16.69.02-3.87-8.02ZM319.96,280.36l-7.67-16.57-7.81,16.98,15.48-.41Z"/>
  <path d="M594.17,299.49l-42.08-.19c1.56-4.42,2.79-7.28,4.49-10.89l29.17.6c1.03.02,3.32-1.78,3.77-2.66.57-1.09-1.63-4.24-3.19-4.25l-22.37-.23c-3.15-.03-7.92-1.76-9.43-3.72-1.88-2.44-2.59-6.47-2.72-10.08-.22-5.96,3.01-12.97,9.93-13.34,13.29-.71,26.47-.53,40.36.12,1.08,3.12-.06,8.27-2.13,10.47l-29.47-.52c-1.38-.02-3.94,2.9-3.38,3.99s3.05,2.57,4.6,2.59l22.03.28c2.48.03,6.99,1.97,8.42,3.75,1.78,2.22,2.48,6.88,2.59,10.33.2,6.33-2.93,13.79-10.6,13.75h0Z"/>
  <path d="M533.54,281.96h-25.7l.17,6.94,33.4.14,4.37,10.4-53.31.25.02-45.37h49.88l-.33,10.54-32.91.15c-1.72,0-1.66,6-.05,6.01l24.05.17.43,10.77h-.02Z"/>
  <path d="M675.63,299.38l-22.53-45.01-20.57.12-22.39,44.88,16.21.32,4.3-8.27,24.87.32,3.84,7.97,16.27-.33ZM634.91,280.76h0s-.01,0-.01,0l8-16.45h0s0,0,0,0l7.68,16.03h.01l-15.69.42Z"/>
  <path d="M262.38,281.29c-1.65,7.63-5.55,14.89-11,20.16l-3.19-1.29.36,3.6c.08.82-2.59,1.76-3.66,1.9l-15.35-25.93c-1.2-2.03.54-6.8,2.03-8.4,2.03-2.18,6.44-3.94,9.51-3.69l21.64,1.78-.12,7.69-20.26-5.21,20.03,9.4h.01Z"/>
  <path d="M213.22,311.57l-1.84-3.93c-.21-.44-1.03.56-2.3,1.53l-7.21-8.46,9.27-19.15c-5.28,4.27-7.91,8.01-12.12,12.92l-1.83-1.98c-2.27-2.47,10.94-10.26,12.19-14.7l-14.3,9.56-3.4-7.63c-.72-1.61-.25-4.99.26-5.93-2.27-1.01-3.27-6.1-2.07-7.91l10.76-.85-11.49-2.02c.83-8.72,7.39-13.59,14.06-18.4l5.97,3.91-4.83,13.21c-.92,3.33,6.56,7.54,7.87,10.67,3.23,7.72,1.96,12.51,6.59,15.06,2.41.36,6.75-1.09,9.97-2.14l7.45,26.19c-6.5-1.75-2.75-6.61-6.46-9.63l.58,9.95-13.87.2-.97-6.48-2.28,6.01h0Z"/>
  <path d="M238.71,258.9c-2.56-7.77-4.98-11.95-14.31-11.82-.19-2.61,0-6.92.47-10.31,12.78-1.33,22.58,5.27,29.79,14.56l-15.95,7.57Z"/>
  <path d="M262.11,266.04c-8.94.57-15.68.69-24.15.56l1.6-6.42,17.67-6.35c1.94,4.18,3.07,6.98,4.88,12.2h0Z"/>
  <path d="M225.96,277.14c-.77-.72,1.04.98,1.53,1.45s-.77,2.45-1.45,2.36l-2.84-.39-6.87,1.02,5.68-4.32c-3.83-4.25-5.67-7.96-4.36-13.29l-8.93-5.93c1.29-.8,3.94-1.9,5.42-1.89,1.69.01,4.11,3.69,4.23,5.47l.63,9.42,6.26.19-3.45,7.54c3.85,1.1,3.19,1.08,4.15-1.63h0Z"/>
  <path d="M221.64,240.36c.42,3.23.03,6-3,6.72-2.38.57-4.55-.95-5.39-3.73-.43-1.43-1.05-3.47-.31-3.88s2.83-1.4,3.66-1.6l3.68-.88c.85-.2,1.14,1.72,1.35,3.37h0Z"/>
  <path d="M228.51,262.67c-1.52.96-2.56,4.4-3.59,6.54-.39-1.02,1.37-14.18,5.67-12.84l5.32,1.65-7.4,4.65h0Z"/>
</svg>